Coordinates
version=1
nRows=7
nColumns=42
inDegrees=yes

Units are S.I. units (second, meters, Newtons, ...)
If the header above contains a line with 'inDegrees', this indicates whether rotational values are in degrees (yes) or radians (no).

endheader
time	pelvis_tilt	pelvis_list	pelvis_rotation	pelvis_tx	pelvis_ty	pelvis_tz	hip_flexion_r	hip_adduction_r	hip_rotation_r	knee_angle_r	knee_adduction_r	knee_angle_r_beta	ankle_angle_r	subtalar_angle_r	mtp_angle_r	hip_flexion_l	hip_adduction_l	hip_rotation_l	knee_angle_l	knee_adduction_l	knee_angle_l_beta	ankle_angle_l	subtalar_angle_l	mtp_angle_l	lumbar_extension	lumbar_bending	lumbar_rotation	arm_flex_r	arm_add_r	arm_rot_r	elbow_flex_r	pro_sup_r	wrist_flex_r	wrist_dev_r	arm_flex_l	arm_add_l	arm_rot_l	elbow_flex_l	pro_sup_l	wrist_flex_l	wrist_dev_l
      1.27000000	      9.50771797	      2.36426980	    -10.97185065	      0.68503196	      0.94025452	     -0.25558609	    -27.68184765	     -7.97320887	     -9.84978120	     24.98589691	     -3.15877488	      0.43608617	     14.83617680	     18.36714092	     -7.53403217	     17.61285320	      0.54888683	    -28.52889484	     18.72518946	     -5.69610693	      0.32681621	      8.14285167	     21.19343102	     -7.53403217	    -21.13700016	     -6.13304187	      7.98340234	      0.50150000	    -15.71566234	      7.24252606	     43.24925800	     90.00000001	      0.00000000	      0.00000000	    -17.69771402	     -6.33742808	     -5.06645663	     33.24854767	     90.00000001	      0.00000000	      0.00000000
      1.28000000	      9.67456106	      2.78728728	    -10.62567361	      0.70230447	      0.94164142	     -0.25719788	    -27.16002693	     -8.54872966	    -10.03117176	     27.86546156	     -3.42828377	      0.48634405	     11.67436205	     16.38999672	     -7.53216018	     17.18876042	      1.36382764	    -27.03014501	     20.09692088	     -5.73168434	      0.35075744	      7.50498145	     19.31575594	     -7.53216018	    -21.14908271	     -6.57812206	      7.39661602	      0.20915667	    -15.11923391	      6.84608232	     41.96408498	     90.00000001	      0.00000000	      0.00000000	    -17.25059658	     -6.65706365	     -5.00020274	     33.15729594	     90.00000001	      0.00000000	      0.00000000
      1.29000000	      9.88099064	      3.27930475	    -10.29146477	      0.71936168	      0.94316624	     -0.25891072	    -26.37039197	     -9.24596104	    -10.25830792	     31.19439061	     -3.71155377	      0.54444482	      8.96000735	     14.34275087	     -7.53006272	     16.65456506	      2.25290712	    -25.82471667	     21.34800466	     -5.73986207	      0.37259297	      7.36154968	     17.76115602	     -7.53006272	    -21.24580795	     -7.09267873	      6.77752953	     -0.27707066	    -14.64271597	      6.55167254	     41.19990477	     90.00000001	      0.00000000	      0.00000000	    -16.78067492	     -6.98734705	     -5.00911600	     33.21155468	     90.00000001	      0.00000000	      0.00000000
      1.30000000	     10.03022776	      3.71690466	     -9.91592364	      0.73603735	      0.94473854	     -0.26063750	    -25.25740502	     -9.84028051	    -10.41353190	     34.83328504	     -4.05980670	      0.60795551	      6.54611342	     12.15662631	     -7.52821317	     16.10378055	      3.06967845	    -24.87666812	     22.45744320	     -5.76399222	      0.39195633	      7.56764592	     16.71002783	     -7.52821317	    -21.34735037	     -7.51715694	      6.09247707	     -0.70057545	    -14.17273017	      6.39881589	     40.40026779	     90.00000001	      0.00000000	      0.00000000	    -16.25147767	     -7.31988391	     -5.04959583	     33.33205242	     90.00000001	      0.00000000	      0.00000000
      1.31000000	     10.15371734	      4.20449020	     -9.59509564	      0.75234723	      0.94630531	     -0.26236310	    -23.81754117	    -10.52953427	    -10.68417223	     38.73891797	     -4.53878331	      0.67612167	      4.89011220	     10.73902481	     -7.52781195	     15.46344646	      3.93258030	    -24.48174124	     23.25661822	     -5.89849761	      0.40590456	      8.19933901	     16.57210471	     -7.52781195	    -21.48088063	     -7.99035161	      5.41693690	     -1.22705652	    -13.79757868	      6.44660556	     39.93630703	     90.00000001	      0.00000000	      0.00000000	    -15.66575815	     -7.68441402	     -5.10115190	     33.56103365	     90.00000001	      0.00000000	      0.00000000
      1.32000000	     10.15487819	      4.47913961	     -9.15940168	      0.76810494	      0.94802944	     -0.26397694	    -22.18768376	    -10.77697748	     -9.94738681	     42.59391143	     -4.56051779	      0.74340400	      2.97658677	      6.81330586	     -7.52604915	     14.79576601	      4.54410912	    -23.73874129	     23.90880659	     -5.82427492	      0.41728740	      8.75015593	     15.86101171	     -7.52604915	    -21.59275880	     -8.19301699	      4.62225583	     -1.42177410	    -13.29075006	      6.32116871	     38.85002684	     90.00000001	      0.00000000	      0.00000000	    -15.03993788	     -8.01054253	     -5.17980694	     33.78699657	     90.00000001	      0.00000000	      0.00000000
      1.33000000	     10.14946893	      4.80634890	     -8.79871489	      0.78352597	      0.94976275	     -0.26556845	    -20.34811194	    -11.13513855	     -9.22351071	     46.45900828	     -4.50177438	      0.81086266	      1.89800099	      3.64986746	     -7.52431351	     13.99559496	      5.21766105	    -23.53081773	     24.18003997	     -5.88600093	      0.42202131	      9.56557058	     16.02627433	     -7.52431351	    -21.72511572	     -8.44811668	      3.86570703	     -1.74993722	    -12.88535675	      6.30093292	     38.18401981	     90.00000001	      0.00000000	      0.00000000	    -14.35540514	     -8.38121834	     -5.28866487	     34.07388125	     90.00000001	      0.00000000	      0.00000000
